<?xml version="1.0" encoding="utf-8"?>
<!-- Generator: Adobe Illustrator 15.0.0, SVG Export Plug-In . SVG Version: 6.00 Build 0)  -->
<!DOCTYPE svg PUBLIC "-//W3C//DTD SVG 1.1 Tiny//EN" "http://www.w3.org/Graphics/SVG/1.1/DTD/svg11-tiny.dtd">
<svg version="1.1" baseProfile="tiny" id="Ebene_1" xmlns="http://www.w3.org/2000/svg" xmlns:xlink="http://www.w3.org/1999/xlink"
	 x="0px" y="0px" width="64px" height="64px" viewBox="0 0 40 40" overflow="inherit" xml:space="preserve">
<g>
	<path fill="#5B5A5A" d="M20,15.72c-2.36,0-4.28,1.92-4.28,4.28s1.92,4.28,4.28,4.28c2.359,0,4.279-1.92,4.279-4.28
		S22.36,15.72,20,15.72z"/>
	<path fill="#5B5A5A" d="M32.039,18.192l-2.211-0.289c-0.404-0.053-0.743-0.331-0.875-0.717c-0.128-0.378-0.276-0.76-0.278-0.766
		l-0.02-0.047v0c0,0-0.163-0.365-0.334-0.714c-0.18-0.366-0.137-0.803,0.112-1.126l1.359-1.768
		c-0.263-0.341-0.659-0.813-1.201-1.357c-0.542-0.542-1.014-0.938-1.355-1.201l-1.768,1.359c-0.323,0.249-0.76,0.292-1.126,0.112
		c-0.317-0.156-0.647-0.305-0.723-0.339l-0.054-0.021c0,0-0.377-0.145-0.75-0.272c-0.386-0.131-0.664-0.47-0.716-0.874l-0.289-2.211
		C21.381,7.906,20.768,7.852,20,7.852c-0.768,0-1.381,0.054-1.809,0.109l-0.289,2.211c-0.053,0.404-0.331,0.743-0.716,0.874
		c-0.377,0.129-0.76,0.276-0.766,0.279l-0.035,0.014c-0.067,0.03-0.403,0.18-0.725,0.339c-0.366,0.18-0.803,0.137-1.126-0.111
		l-1.769-1.36c-0.341,0.263-0.813,0.659-1.356,1.201c-0.542,0.543-0.938,1.014-1.201,1.356l1.359,1.768
		c0.249,0.324,0.292,0.761,0.112,1.127c-0.178,0.36-0.345,0.737-0.345,0.737h0c-0.003,0.008-0.006,0.015-0.009,0.023
		c-0.002,0.007-0.15,0.387-0.277,0.764c-0.131,0.386-0.471,0.665-0.875,0.718l-2.211,0.289C7.906,18.619,7.852,19.232,7.852,20
		c0,0.767,0.054,1.38,0.109,1.807l2.211,0.289c0.405,0.052,0.745,0.331,0.875,0.718c0.128,0.377,0.274,0.757,0.277,0.764
		l0.015,0.036c0.03,0.068,0.181,0.403,0.34,0.725c0.181,0.366,0.137,0.803-0.112,1.127l-1.359,1.769
		c0.263,0.341,0.659,0.813,1.201,1.355c0.542,0.542,1.014,0.938,1.355,1.201l1.769-1.36c0.324-0.249,0.762-0.291,1.127-0.111
		c0.319,0.158,0.651,0.307,0.723,0.338l0.057,0.023c0,0,0.375,0.144,0.746,0.271c0.386,0.131,0.664,0.47,0.717,0.875l0.289,2.21
		c0.428,0.056,1.041,0.11,1.809,0.11c0.767,0,1.38-0.054,1.808-0.11l0.289-2.21c0.053-0.404,0.331-0.744,0.716-0.875
		c0.381-0.13,0.766-0.279,0.766-0.279l0.048-0.02c0,0-0.001,0-0.001,0s0.364-0.162,0.713-0.335c0.367-0.18,0.803-0.137,1.126,0.112
		l1.768,1.359c0.341-0.263,0.813-0.659,1.356-1.201c0.542-0.542,0.938-1.014,1.2-1.356l-1.359-1.768
		c-0.249-0.323-0.292-0.76-0.111-1.126c0.157-0.319,0.307-0.652,0.338-0.723l0.023-0.056c0,0,0.145-0.375,0.271-0.747
		c0.131-0.386,0.471-0.664,0.875-0.717l2.211-0.289c0.055-0.427,0.109-1.041,0.109-1.808S32.094,18.619,32.039,18.192z M20,26.239
		c-3.44,0-6.239-2.799-6.239-6.239c0-3.44,2.798-6.239,6.239-6.239c3.439,0,6.238,2.799,6.238,6.239
		C26.238,23.44,23.44,26.239,20,26.239z"/>
</g>
</svg>
